<svg width="47" height="37" viewBox="0 0 47 37" fill="none" xmlns="http://www.w3.org/2000/svg">
<path fill-rule="evenodd" clip-rule="evenodd" d="M45.4121 14.3541H37.2824C37.2824 14.4811 37.2824 14.6716 37.2189 14.7987C37.1554 15.1162 37.0919 15.4338 36.9649 15.7514C36.7743 16.0689 36.5838 16.3865 36.3297 16.7041C36.1392 16.8946 35.8851 17.1487 35.6311 17.2757C35.5887 17.2968 35.5464 17.3251 35.504 17.3533C35.4194 17.4098 35.3347 17.4662 35.25 17.4662C34.8054 17.6568 34.2973 17.7838 33.8527 17.7838C33.3446 17.7838 32.8365 17.6568 32.4554 17.4662C32.0108 17.2757 31.6297 17.0216 31.3121 16.6405C31.1216 16.45 30.9946 16.2595 30.8676 16.0689L30.8676 16.0689L30.6135 15.6878L30.0419 14.7351L29.7243 14.2905H16.0689L15.7513 14.7351L15.1797 15.6878L14.9257 16.0689C14.7986 16.2595 14.6716 16.45 14.4811 16.6405C14.1635 16.9581 13.7824 17.2757 13.3378 17.4662C12.8932 17.6568 12.4486 17.7838 11.9405 17.7838C11.4324 17.7838 10.9878 17.6568 10.5432 17.4662C10.4797 17.4345 10.4003 17.4027 10.3209 17.3709C10.2415 17.3392 10.1621 17.3074 10.0986 17.2757C9.84458 17.0851 9.59053 16.8946 9.39999 16.7041C9.14593 16.45 8.89188 16.0689 8.76485 15.7514C8.74739 15.699 8.72513 15.6418 8.70203 15.5824C8.6411 15.4259 8.57431 15.2544 8.57431 15.1162C8.57431 15.0527 8.55843 15.0051 8.54255 14.9574C8.52668 14.9098 8.5108 14.8622 8.5108 14.7987C8.5108 14.7351 8.49492 14.6558 8.47904 14.5764L8.47904 14.5764L8.47904 14.5763C8.46316 14.4969 8.44728 14.4176 8.44728 14.3541H1.71485C0.825663 14.3541 0.127014 15.0527 0.127014 15.9419C0.127014 16.8311 0.825663 17.5297 1.71485 17.5297H2.98512C2.98512 18.0378 3.04864 18.5459 3.17566 19.0541L7.81215 34.4243C8.19323 35.7581 9.52701 36.7108 10.8608 36.7108H36.1392C37.473 36.7108 38.8067 35.7581 39.1878 34.4243L43.8243 19.0541C44.0149 18.5459 44.0149 18.0378 44.0149 17.5297H45.2851C46.1743 17.5297 46.873 16.8311 46.873 15.9419C46.873 15.0527 46.2378 14.3541 45.4121 14.3541ZM18.6094 32.6459V22.8649C18.6094 21.9757 19.3081 21.277 20.1973 21.277C21.0865 21.277 21.7851 21.9757 21.7851 22.8649V32.6459C21.7851 33.5351 21.0865 34.2338 20.1973 34.2338C19.3081 34.2338 18.6094 33.5351 18.6094 32.6459ZM25.5959 22.9284V32.7095C25.5959 33.5987 26.2946 34.2973 27.1838 34.2973C28.073 34.2973 28.7716 33.5987 28.7716 32.7095V22.9284C28.7716 22.0392 28.073 21.3405 27.1838 21.3405C26.2946 21.3405 25.5959 22.0392 25.5959 22.9284ZM32.5824 23.0554C32.5824 22.1662 33.2811 21.4676 34.1703 21.4676C35.0594 21.4676 35.7581 22.1662 35.7581 23.0554V32.8365C35.7581 33.7257 35.0594 34.4243 34.1703 34.4243C33.2811 34.4243 32.5824 33.7257 32.5824 32.8365V23.0554ZM13.2743 21.15C12.3851 21.15 11.6865 21.8487 11.6865 22.7378V32.5189C11.6865 33.4081 12.3851 34.1068 13.2743 34.1068C14.1635 34.1068 14.8621 33.4081 14.8621 32.5189V22.7378C14.8621 21.8487 14.1635 21.15 13.2743 21.15Z" fill="#E5E5E5"/>
<path d="M11.1149 15.6878C11.1784 15.6878 11.2419 15.7514 11.2419 15.7514C11.4325 15.8784 11.6865 15.9419 11.9406 15.9419C12.1946 15.9419 12.3852 15.8784 12.6392 15.7514C12.8933 15.6243 13.1473 15.4338 13.2743 15.1797L13.5284 14.7987L13.7825 14.3541L21.15 2.47703C21.5946 1.71487 21.4041 0.762164 20.6419 0.317569C19.8797 -0.127025 18.927 0.0635152 18.4825 0.825677L10.6068 13.5284C10.4162 13.7824 10.3527 14.1 10.3527 14.3541C10.3527 14.5446 10.3527 14.6716 10.4162 14.7987C10.5433 15.1797 10.7973 15.4973 11.1149 15.6878Z" fill="#E5E5E5"/>
<path d="M31.9473 14.3541L32.2013 14.7987L32.4554 15.1797C32.6459 15.4338 32.8365 15.6243 33.0905 15.7514C33.2811 15.8784 33.5351 15.9419 33.7892 15.9419C34.0432 15.9419 34.2338 15.8784 34.4878 15.7514C34.5513 15.7514 34.6149 15.6878 34.6149 15.6878C34.9324 15.4973 35.1865 15.1797 35.3135 14.7987C35.377 14.6716 35.377 14.4811 35.377 14.3541C35.377 14.0365 35.3135 13.7824 35.123 13.5284L27.2473 0.825677C26.8027 0.0635152 25.7865 -0.127025 25.0878 0.317569C24.3257 0.762164 24.1351 1.77838 24.5797 2.47703L31.9473 14.3541Z" fill="#E5E5E5"/>
</svg>
