<svg width="214" height="42" viewBox="0 0 214 42" fill="none" xmlns="http://www.w3.org/2000/svg">
<mask id="mask0" mask-type="alpha" maskUnits="userSpaceOnUse" x="22" y="0" width="10" height="10">
<path fill-rule="evenodd" clip-rule="evenodd" d="M22.7384 0.583567H31.377V9.29588H22.7384V0.583567Z" fill="white"/>
</mask>
<g mask="url(#mask0)">
<path fill-rule="evenodd" clip-rule="evenodd" d="M31.377 4.93897C31.377 7.34522 29.4429 9.29588 27.0577 9.29588C24.6725 9.29588 22.7384 7.34522 22.7384 4.93897C22.7384 2.53388 24.6725 0.583217 27.0577 0.583217C29.4429 0.583217 31.377 2.53388 31.377 4.93897Z" fill="#FEFEFE"/>
</g>
<mask id="mask1" mask-type="alpha" maskUnits="userSpaceOnUse" x="0" y="7" width="50" height="35">
<path fill-rule="evenodd" clip-rule="evenodd" d="M0 7.68565H49.6868V41.4309H0V7.68565Z" fill="white"/>
</mask>
<g mask="url(#mask1)">
<path fill-rule="evenodd" clip-rule="evenodd" d="M0 11.5841H20.2346L19.7025 12.5938H11.9557L16.5254 14.8513L37.3702 7.68565L44.3038 12.168L46.7145 15.0094L43.5837 15.514L43.036 13.3685L37.9023 10.9686L34.2412 13.4939L40.8607 29.2456L47.903 28.331L49.6868 31.551L46.995 30.1451L38.7635 33.2712L34.1006 26.8942L27.5111 30.9344L25.8992 41.4315L19.5613 36.2071L24.0536 37.3744L23.0675 30.0506L28.7795 23.0116L24.8049 17.3299L15.3837 17.5031L10.892 13.7465L7.40209 12.5938H0.516492L0 11.5841Z" fill="#FEFEFE"/>
</g>
<path fill-rule="evenodd" clip-rule="evenodd" d="M81.8467 17.7751C81.8467 17.134 81.4014 16.6534 80.576 16.6534C78.86 16.6534 77.9068 18.1274 77.716 19.4096C80.6073 19.4732 81.8467 18.8969 81.8467 17.8072V17.7751ZM84.7381 28.0289C82.8317 28.9255 80.7027 29.1501 79.019 29.1501C74.5713 29.1501 72.3156 26.6832 72.3156 22.5812C72.3156 17.8072 75.4927 12.7765 81.1799 12.7765C84.3887 12.7765 86.5808 14.7307 86.612 17.6789C86.612 21.7797 83.0862 23.4148 77.24 23.2223C77.3036 23.6067 77.4621 23.9911 77.7802 24.3113C78.3198 24.792 79.1781 25.1123 80.3534 25.1123C81.8786 25.1123 83.2129 24.8241 84.4841 24.2157L84.7381 28.0289Z" fill="#FEFEFE"/>
<path fill-rule="evenodd" clip-rule="evenodd" d="M85.748 28.8619L87.6861 18.3514C88.0673 16.3972 88.3212 14.6029 88.5438 13.0967H92.9603L92.7695 15.4038H92.8331C94.1356 13.5774 95.8829 12.7765 97.821 12.7765C100.013 12.7765 101.062 14.1864 101.221 15.4038C102.491 13.6415 104.302 12.7765 106.177 12.7765C108.655 12.7765 109.767 14.411 109.767 16.8458C109.767 17.4869 109.608 18.8005 109.449 19.7298L107.765 28.8619H102.682L104.271 20.274C104.398 19.5694 104.493 18.8968 104.493 18.2878C104.493 17.519 104.144 16.9741 103.413 16.9741C102.269 16.9741 101.157 18.6407 100.585 21.684L99.219 28.8619H94.231L95.8193 20.274C95.9465 19.6015 96.0419 18.9604 96.0419 18.384C96.0419 17.5505 95.7562 16.9741 95.057 16.9741C93.9129 16.9741 92.6746 18.7043 92.1338 21.684L90.8313 28.8619H85.748Z" fill="#FEFEFE"/>
<path fill-rule="evenodd" clip-rule="evenodd" d="M119.768 17.7751C119.768 17.134 119.323 16.6534 118.498 16.6534C116.782 16.6534 115.828 18.1274 115.638 19.4096C118.529 19.4732 119.768 18.8969 119.768 17.8072V17.7751ZM122.66 28.0289C120.753 28.9255 118.624 29.1501 116.941 29.1501C112.493 29.1501 110.237 26.6832 110.237 22.5812C110.237 17.8072 113.414 12.7765 119.101 12.7765C122.31 12.7765 124.502 14.7307 124.534 17.6789C124.534 21.7797 121.008 23.4148 115.162 23.2223C115.225 23.6067 115.384 23.9911 115.702 24.3113C116.241 24.792 117.1 25.1123 118.275 25.1123C119.8 25.1123 121.134 24.8241 122.406 24.2157L122.66 28.0289Z" fill="#FEFEFE"/>
<path fill-rule="evenodd" clip-rule="evenodd" d="M123.67 28.8619L127.706 6.85446H133.042L130.564 19.4416H130.628C131.104 18.8005 131.517 18.1595 131.962 17.519L135.012 13.0967H141.175L135.107 19.794L138.666 28.8619H133.01L131.104 22.517L129.707 24.0552L128.817 28.8619H123.67Z" fill="#FEFEFE"/>
<path fill-rule="evenodd" clip-rule="evenodd" d="M140.101 24.3758C140.958 24.8244 142.483 25.4013 143.945 25.3686C144.993 25.3686 145.47 24.8886 145.47 24.2796C145.47 23.6711 145.025 23.222 143.723 22.5167C142.007 21.556 140.672 20.2423 140.672 18.3844C140.672 15.0518 143.532 12.7762 147.694 12.7762C149.537 12.7762 150.903 13.1291 151.665 13.5456L150.522 17.1979C149.886 16.9097 148.869 16.5895 147.663 16.5895C146.582 16.5895 145.883 16.9745 145.883 17.7106C145.883 18.1913 146.424 18.6405 147.472 19.1853C149.251 20.2102 150.808 21.5239 150.808 23.5107C150.808 27.163 147.821 29.1819 143.5 29.1504C141.594 29.1183 139.783 28.6376 138.893 28.0292L140.101 24.3758Z" fill="#FEFEFE"/>
<path fill-rule="evenodd" clip-rule="evenodd" d="M160.968 17.7751C160.968 17.134 160.522 16.6534 159.697 16.6534C157.981 16.6534 157.028 18.1274 156.837 19.4096C159.728 19.4732 160.968 18.8969 160.968 17.8072V17.7751ZM163.86 28.0289C161.953 28.9255 159.824 29.1501 158.14 29.1501C153.693 29.1501 151.437 26.6832 151.437 22.5812C151.437 17.8072 154.614 12.7765 160.301 12.7765C163.51 12.7765 165.702 14.7307 165.734 17.6789C165.734 21.7797 162.207 23.4148 156.361 23.2223C156.425 23.6067 156.584 23.9911 156.901 24.3113C157.441 24.792 158.3 25.1123 159.474 25.1123C160.999 25.1123 162.334 24.8241 163.606 24.2157L163.86 28.0289Z" fill="#FEFEFE"/>
<path fill-rule="evenodd" clip-rule="evenodd" d="M170.873 24.6965C171.255 25.0489 171.699 25.2729 172.367 25.2729C174.369 25.2729 175.766 21.6842 175.766 19.1204C175.766 18.0955 175.448 17.07 174.337 17.07C173.003 17.07 171.921 18.6404 171.541 20.8833L170.873 24.6965ZM163.693 35.1429L166.743 19.0248C167.061 17.2304 167.443 14.6346 167.632 13.0007H172.208L171.986 15.1474H172.049C173.193 13.6091 174.877 12.7761 176.528 12.7761C179.801 12.7761 181.168 15.4682 181.168 18.5762C181.168 23.9913 177.864 29.1818 172.653 29.1818C171.668 29.1818 170.683 28.9578 170.174 28.6375H170.111L168.872 35.1429H163.693Z" fill="#FEFEFE"/>
<path fill-rule="evenodd" clip-rule="evenodd" d="M191.009 17.7751C191.009 17.134 190.564 16.6534 189.739 16.6534C188.023 16.6534 187.07 18.1274 186.879 19.4096C189.77 19.4732 191.009 18.8969 191.009 17.8072V17.7751ZM193.901 28.0289C191.994 28.9255 189.866 29.1501 188.182 29.1501C183.735 29.1501 181.478 26.6832 181.478 22.5812C181.478 17.8072 184.655 12.7765 190.343 12.7765C193.551 12.7765 195.744 14.7307 195.775 17.6789C195.775 21.7797 192.249 23.4148 186.403 23.2223C186.466 23.6067 186.625 23.9911 186.943 24.3113C187.483 24.792 188.341 25.1123 189.516 25.1123C191.041 25.1123 192.376 24.8241 193.647 24.2157L193.901 28.0289Z" fill="#FEFEFE"/>
<path fill-rule="evenodd" clip-rule="evenodd" d="M204.861 8.67475L204.067 13.0964H207.149L206.419 16.9744H203.305L202.319 21.9724C202.224 22.4531 202.129 23.1583 202.129 23.5422C202.129 24.3431 202.511 24.8243 203.401 24.8243C203.75 24.8243 204.195 24.8243 204.64 24.7923L203.94 28.798C203.273 29.0547 202.065 29.1503 201.049 29.1503C198.19 29.1503 196.792 27.7083 196.792 25.5296C196.792 24.7287 196.887 23.863 197.11 22.8054L198.221 16.9744H196.347L197.078 13.0964H198.952L199.492 10.1809L204.861 8.67475Z" fill="#FEFEFE"/>
<path fill-rule="evenodd" clip-rule="evenodd" d="M205.11 28.8619L208.063 13.0967H213.275L210.288 28.8619H205.11Z" fill="#FEFEFE"/>
<path fill-rule="evenodd" clip-rule="evenodd" d="M211.198 11.4627C210.005 11.4627 209.192 10.6157 209.192 9.35859C209.192 7.96501 210.276 6.87184 211.631 6.87184C212.932 6.87184 213.744 7.74626 213.744 8.97592C213.744 10.5608 212.552 11.4627 211.225 11.4627H211.198Z" fill="#FEFEFE"/>
<path fill-rule="evenodd" clip-rule="evenodd" d="M59.3759 28.4711L57.9901 6.86035H64.7548L64.5009 22.2959H64.5801L70.8306 6.86035H77.3576L67.3367 28.2716C66.0162 31.0938 64.8415 32.9453 63.812 33.8238C62.4916 34.9426 60.4713 35.502 57.7518 35.502C56.4579 35.502 55.2694 35.3824 54.1872 35.1421L55.2179 30.1091C55.8767 30.189 56.5505 30.2293 57.2376 30.2293C58.4256 30.2293 59.1387 29.643 59.3759 28.4711Z" fill="#FEFEFE"/>
</svg>
