<svg width="19" height="13" viewBox="0 0 19 13" fill="none" xmlns="http://www.w3.org/2000/svg">
<path d="M10.7656 2.69621C10.7656 2.69621 11.3946 3.65453 11.5866 3.58097L12.2928 3.30949L13.969 8.27772C14.1034 8.12827 14.2546 7.99581 14.4196 7.88208C14.4735 7.84493 14.5286 7.80928 14.5854 7.77621C14.7298 7.69223 14.8831 7.6217 15.0442 7.56619C15.06 7.56075 15.0759 7.55607 15.0917 7.55094C15.3184 7.47768 15.5519 7.43638 15.7877 7.4283C15.8166 7.42731 15.8455 7.42648 15.8744 7.42648C16.7718 7.42648 17.5874 7.89688 18.0544 8.64239C18.3323 8.62888 18.4034 8.46342 17.957 7.87211C17.2369 6.91855 16.2354 6.73369 15.5311 6.74328C15.4868 6.62215 15.4411 6.49558 15.3935 6.36176C14.9618 5.14887 13.9924 4.57108 13.4218 4.32678L13.2644 3.86024L13.086 3.33161L12.8717 2.69621C12.8389 2.59947 12.7695 2.52048 12.6783 2.47705C12.6531 2.46505 12.6268 2.45666 12.6001 2.4507C12.6025 2.47003 10.7656 2.69621 10.7656 2.69621Z" fill="#FF6508"/>
<path d="M0.396561 5.58129H5.08953C5.3085 5.58129 5.48609 5.4008 5.48609 5.17825V0.475761C5.48609 0.253135 5.3085 0.0727234 5.08953 0.0727234H0.396561C0.177587 0.0727234 0 0.253211 0 0.475761V5.17825C0 5.40087 0.177587 5.58129 0.396561 5.58129Z" fill="#FF6508"/>
<path fill-rule="evenodd" clip-rule="evenodd" d="M4.15852 7.92377C5.3164 7.52474 6.57317 8.15531 6.96572 9.33203C7.10348 9.74488 7.11604 10.17 7.02494 10.5655C6.85635 11.2969 6.33161 11.9261 5.5801 12.1851C4.42222 12.5841 3.16537 11.9535 2.7729 10.7768C2.74942 10.7067 2.72995 10.6361 2.7136 10.5655C2.45644 9.45089 3.06967 8.29894 4.15852 7.92377ZM4.15421 10.5655C4.37155 10.8799 4.7739 11.0258 5.15003 10.8962C5.33267 10.8332 5.48076 10.7145 5.58374 10.5655C5.73867 10.3414 5.79068 10.0483 5.6975 9.76905C5.5425 9.30423 5.04586 9.05503 4.58851 9.21263C4.13117 9.37024 3.88604 9.87492 4.04112 10.3398C4.06861 10.4223 4.10732 10.4976 4.15421 10.5655Z" fill="#FF6508"/>
<path d="M13.3178 9.65924H8.5802C8.17064 8.81941 8.02976 7.96214 7.9831 7.40436C8.10473 7.36653 8.19375 7.25287 8.19375 7.11687V6.28617C8.19375 6.11935 8.06067 5.9841 7.89653 5.9841H1.84075C1.67662 5.9841 1.54354 6.11935 1.54354 6.28617V7.11687C1.54354 7.28368 1.67662 7.41894 1.84075 7.41894H1.87352C1.55075 8.22388 1.05261 9.61922 1.05261 10.5655C1.05261 10.5655 1.55758 10.5655 2.33376 10.5655C2.22223 10.0004 2.29587 9.41706 2.55103 8.89168C2.85679 8.26239 3.38531 7.79154 4.03919 7.56635C4.30832 7.47346 4.58763 7.42656 4.86946 7.42656C5.97778 7.42656 6.96157 8.14353 7.31748 9.21097C7.46824 9.66294 7.48987 10.1281 7.40375 10.5655C7.58163 10.5655 7.75588 10.5655 7.92566 10.5655C8.37349 10.5655 8.78952 10.5655 9.15168 10.5655H13.3388C13.2795 10.2647 13.2727 9.9589 13.3178 9.65924Z" fill="#FF6508"/>
<path fill-rule="evenodd" clip-rule="evenodd" d="M15.9356 7.80506C16.5587 7.82273 17.1481 8.10932 17.5533 8.58833C17.733 8.80068 17.8768 9.05049 17.9705 9.33202C18.3631 10.5087 17.7427 11.7861 16.5849 12.1851C15.427 12.5841 14.1702 11.9535 13.7777 10.7768C13.7542 10.7067 13.7347 10.6361 13.7184 10.5655C13.6481 10.2606 13.643 9.95301 13.6948 9.65924C13.7566 9.30892 13.8994 8.97822 14.1097 8.69556C14.2364 8.5255 14.3875 8.37295 14.5599 8.24374C14.6078 8.20787 14.6574 8.17411 14.7086 8.14202C14.8488 8.05389 15.0006 7.97988 15.1634 7.92377C15.208 7.90837 15.2529 7.89507 15.2978 7.88269C15.5103 7.82416 15.7248 7.79909 15.9356 7.80506ZM15.0461 10.3398C15.2011 10.8046 15.6977 11.0538 16.155 10.8962C16.6125 10.7385 16.8576 10.2339 16.7024 9.76905C16.5474 9.30423 16.0508 9.05503 15.5934 9.21263C15.1361 9.37024 14.891 9.87492 15.0461 10.3398Z" fill="#FF6508"/>
</svg>
