<svg width="16" height="13" viewBox="0 0 16 13" fill="none" xmlns="http://www.w3.org/2000/svg">
<ellipse cx="6.48632" cy="3.80357" rx="2.16211" ry="1.08761" fill="#FF6508"/>
<path fill-rule="evenodd" clip-rule="evenodd" d="M1.63303 5.95618V1.62386H10.8136V4.33232C10.8136 4.33232 10.7771 2.70846 12.4344 2.70846V1.62386C12.4344 0 10.8136 0 10.8136 0H1.63303C0.012207 0 0.012207 1.62386 0.012207 1.62386V11.3731C0.012207 11.3731 0.012207 13 1.63303 13H8.11022V11.3731H1.63303V10.2794H8.11022V8.66464H1.63303V7.58308H8.11022C8.11022 6.49848 9.18975 5.95618 9.18975 5.95618H1.63303Z" fill="#FF6508"/>
<path fill-rule="evenodd" clip-rule="evenodd" d="M15.4936 5.97268C15.0771 6.3547 14.543 6.54914 14 6.51649V7.60409C14 7.60409 15.9999 7.55827 15.9999 6.51649C16.0031 6.36961 15.9505 6.22783 15.8546 6.12481C15.7587 6.0218 15.628 5.96673 15.4936 5.97268Z" fill="#FF6508"/>
<path fill-rule="evenodd" clip-rule="evenodd" d="M15.4936 8.1479C15.0764 8.52827 14.5426 8.72153 14 8.68865V9.77625C14 9.77625 15.9999 9.74265 15.9999 8.68865C16.0031 8.54202 15.9504 8.40052 15.8544 8.29797C15.7584 8.19543 15.6277 8.14107 15.4936 8.1479Z" fill="#FF6508"/>
<path fill-rule="evenodd" clip-rule="evenodd" d="M15.4933 10.3078C15.0762 10.6882 14.5425 10.8815 14 10.8486V11.9362C14 11.9362 15.9995 11.9148 15.9995 10.8608C16.0059 10.7121 15.9547 10.5673 15.8583 10.462C15.7619 10.3568 15.6294 10.3008 15.4933 10.3078Z" fill="#FF6508"/>
<ellipse cx="14" cy="4.34432" rx="2" ry="1.08761" fill="#FF6508"/>
<path fill-rule="evenodd" clip-rule="evenodd" d="M12.9757 9.15175C12.526 9.53081 11.9503 9.72507 11.364 9.69555C10.7745 9.72866 10.1946 9.53412 9.74321 9.15175C9.59865 9.14837 9.45901 9.20457 9.35676 9.3073C9.25451 9.41002 9.19856 9.55031 9.20193 9.69555C9.20193 10.7465 11.364 10.7801 11.364 10.7801C11.364 10.7801 13.5292 10.7465 13.5292 9.69555C13.5318 9.54839 13.4739 9.40664 13.3692 9.30373C13.2645 9.20082 13.1221 9.14583 12.9757 9.15175Z" fill="#FF6508"/>
<path fill-rule="evenodd" clip-rule="evenodd" d="M12.9757 11.1189C12.526 11.5162 11.9503 11.7198 11.364 11.6889C10.7745 11.7236 10.1946 11.5197 9.74321 11.1189C9.59865 11.1153 9.45901 11.1743 9.35676 11.2819C9.25451 11.3896 9.19856 11.5367 9.20193 11.6889C9.20193 12.7905 11.364 12.8289 11.364 12.8289C11.364 12.8289 13.5261 12.7905 13.5261 11.6889C13.5296 11.5349 13.4724 11.3863 13.3682 11.2783C13.2639 11.1704 13.1218 11.1126 12.9757 11.1189Z" fill="#FF6508"/>
<ellipse cx="11.3518" cy="7.6041" rx="2.16211" ry="1.08761" fill="#FF6508"/>
</svg>
